<?xml version="1.0" standalone="no"?>
<!DOCTYPE svg PUBLIC "-//W3C//DTD SVG 20010904//EN"
 "http://www.w3.org/TR/2001/REC-SVG-20010904/DTD/svg10.dtd">
<svg version="1.0" xmlns="http://www.w3.org/2000/svg"
 width="2559.000000pt" height="1098.000000pt" viewBox="0 0 2559.000000 1098.000000"
 preserveAspectRatio="xMidYMid meet">
<metadata>
Created by potrace 1.16, written by Peter Selinger 2001-2019
</metadata>
<g transform="translate(0.000000,1098.000000) scale(0.100000,-0.100000)"
fill="#000000" stroke="none">
<path d="M13155 7500 c-639 -40 -1039 -300 -1199 -780 -61 -183 -71 -261 -70
-565 0 -269 7 -385 45 -689 11 -88 16 -163 12 -167 -5 -4 -107 -8 -228 -10
l-221 -4 -248 258 c-137 141 -250 256 -251 255 -4 -5 251 -2167 256 -2172 2
-3 112 143 244 324 186 256 244 330 264 335 55 11 373 56 375 53 2 -2 22 -91
45 -198 60 -273 149 -662 237 -1024 41 -169 74 -311 74 -315 0 -4 -175 -135
-389 -292 l-390 -284 52 -3 c29 -1 520 18 1092 43 572 24 1204 52 1405 60 201
8 398 18 439 21 l73 6 -345 155 c-279 125 -346 159 -350 176 -3 12 -35 130
-71 262 -108 390 -233 985 -296 1405 -11 74 -22 145 -25 157 -6 26 -40 19 375
72 l295 38 299 -293 c165 -162 301 -292 303 -290 4 4 56 343 188 1231 36 242
74 498 85 569 11 72 18 132 16 134 -3 2 -21 -12 -43 -31 -21 -19 -179 -154
-352 -301 l-313 -266 -52 0 c-28 0 -237 -7 -464 -16 -228 -9 -417 -13 -420 -9
-4 4 -7 118 -6 253 0 269 13 379 61 522 45 137 123 229 232 272 47 19 75 22
176 22 104 0 130 -3 192 -26 99 -35 193 -105 256 -189 28 -38 54 -65 58 -61
13 13 800 1354 797 1357 -2 1 -171 -80 -376 -181 l-373 -183 -61 36 c-90 53
-288 146 -399 187 -307 114 -671 167 -1004 146z"/>
<path d="M3345 7425 c-55 -8 -365 -46 -690 -85 -324 -39 -660 -80 -745 -90
-85 -10 -308 -37 -495 -60 -187 -22 -446 -54 -575 -69 -129 -16 -319 -39 -423
-52 -103 -12 -185 -24 -182 -27 2 -3 174 -80 382 -173 l378 -168 -2 -38 c-2
-32 -200 -1996 -303 -3003 -16 -157 -41 -404 -55 -550 -14 -146 -28 -275 -31
-287 -3 -16 -71 -60 -282 -179 -152 -87 -284 -164 -292 -171 -12 -11 -11 -13
7 -13 12 0 349 -29 750 -65 400 -36 1005 -90 1343 -120 338 -30 662 -59 720
-65 351 -33 1015 -90 1025 -88 7 2 -235 117 -536 257 -302 140 -549 259 -549
266 0 11 -451 3164 -508 3548 -10 70 -15 124 -11 120 4 -5 296 -627 649 -1383
353 -756 649 -1389 658 -1407 l17 -32 186 307 c102 169 444 732 759 1252 315
520 579 952 587 960 13 13 14 13 9 -5 -7 -25 -77 -347 -436 -2010 -110 -511
-206 -954 -212 -982 -6 -29 -18 -59 -27 -66 -9 -8 -142 -84 -296 -169 -154
-86 -315 -177 -359 -201 l-79 -45 44 -6 c24 -3 193 -10 374 -16 182 -6 1088
-37 2015 -70 927 -33 1692 -59 1700 -58 8 2 -189 119 -437 261 -431 246 -453
260 -458 290 -3 18 -43 401 -90 852 -47 451 -110 1054 -140 1340 -30 286 -79
760 -110 1054 -31 294 -52 537 -48 541 4 4 214 79 465 166 271 95 450 161 440
165 -9 3 -75 9 -147 13 -71 4 -672 38 -1335 76 -1191 69 -1513 88 -1599 92
-44 2 -45 2 -57 -37 -7 -22 -101 -399 -210 -838 -108 -439 -200 -794 -204
-790 -3 4 -30 112 -59 238 -51 223 -148 640 -292 1260 -38 165 -74 317 -80
338 -11 43 -4 42 -154 22z"/>
<path d="M9195 7349 c-440 -25 -805 -141 -975 -309 -80 -78 -103 -124 -108
-212 -6 -94 16 -154 85 -228 216 -234 775 -365 1407 -330 233 13 375 32 541
75 218 56 387 137 485 235 162 160 141 363 -53 507 -269 200 -781 297 -1382
262z"/>
<path d="M20595 6901 c-236 -39 -442 -186 -549 -391 -63 -120 -81 -198 -81
-350 0 -114 4 -147 23 -210 75 -240 248 -421 478 -500 l51 -18 47 107 c159
356 411 686 708 923 l87 69 -22 37 c-11 20 -59 76 -107 123 -71 71 -102 94
-181 133 -51 25 -121 53 -154 61 -72 19 -231 27 -300 16z"/>
<path d="M24303 6870 c-117 -42 -196 -92 -288 -185 -49 -49 -98 -104 -107
-122 l-18 -31 96 -77 c295 -238 550 -573 704 -927 l42 -96 54 18 c187 65 345
206 431 387 l35 72 -48 108 c-56 124 -126 236 -174 276 -18 16 -54 39 -79 52
-25 13 -63 44 -84 69 -66 80 -191 133 -282 120 -39 -5 -43 -3 -86 43 -48 51
-93 151 -119 261 -6 28 -15 52 -18 51 -4 0 -30 -9 -59 -19z"/>
<path d="M22445 6814 c-468 -50 -877 -193 -1198 -421 -45 -32 -129 -105 -187
-163 -312 -311 -500 -697 -576 -1182 -20 -124 -26 -584 -11 -729 l8 -76 102
-6 c322 -20 580 -199 703 -487 102 -237 78 -527 -61 -739 -19 -29 -35 -57 -35
-61 0 -14 98 -93 203 -164 353 -239 807 -353 1259 -318 423 34 729 160 1031
427 54 48 101 84 104 81 3 -3 0 -90 -6 -193 -11 -187 -34 -332 -66 -428 -89
-265 -363 -462 -740 -531 -80 -15 -150 -19 -355 -19 -226 0 -268 3 -368 23
-248 50 -442 145 -577 282 l-49 50 -583 0 c-518 0 -583 -2 -583 -15 0 -24 62
-180 110 -275 23 -47 74 -133 112 -192 l71 -106 71 56 c147 117 314 169 510
159 142 -7 242 -34 382 -102 311 -151 558 -443 660 -783 l29 -92 155 0 156 0
28 94 c134 447 536 815 956 877 99 14 250 7 335 -16 124 -34 285 -136 350
-221 l29 -37 27 33 c86 103 170 324 223 590 26 132 66 426 66 488 l0 37 -89
28 c-259 82 -459 295 -526 562 -93 364 84 746 420 910 76 37 202 75 249 75
l29 0 -6 283 c-3 159 -13 338 -22 411 -102 829 -443 1320 -1160 1672 -234 114
-375 163 -589 200 -79 14 -504 27 -591 18z m400 -989 c238 -36 429 -127 599
-286 277 -258 420 -644 386 -1041 -28 -319 -129 -550 -329 -748 -101 -101
-180 -156 -307 -217 -143 -68 -259 -94 -444 -100 -250 -9 -415 23 -605 117
-119 59 -192 113 -298 218 -242 239 -348 535 -334 937 6 177 26 304 67 425
104 312 346 546 675 654 164 54 398 70 590 41z"/>
<path d="M21992 5369 c-110 -56 -137 -217 -53 -313 55 -62 173 -76 249 -29 66
40 95 99 90 180 -4 69 -20 97 -82 147 -50 41 -140 48 -204 15z"/>
<path d="M23140 5368 c-63 -34 -103 -100 -103 -171 0 -117 84 -200 200 -200
107 0 193 88 193 197 0 62 -28 116 -83 160 -53 43 -142 48 -207 14z"/>
<path d="M22575 5007 c-126 -42 -195 -125 -195 -235 0 -55 26 -139 66 -213 26
-46 106 -131 149 -155 19 -11 18 -15 -29 -83 -89 -131 -181 -193 -298 -199
-82 -5 -176 21 -260 72 -52 31 -58 32 -70 17 -44 -52 -47 -46 64 -100 57 -27
131 -55 166 -62 166 -31 321 35 443 191 l52 67 47 -61 c127 -166 298 -236 470
-192 66 17 188 71 225 99 20 16 20 16 -6 42 l-27 27 -97 -48 c-97 -48 -99 -49
-194 -49 -82 0 -103 4 -140 24 -61 32 -144 112 -191 184 l-38 60 46 31 c126
84 211 326 156 442 -24 50 -78 103 -130 126 -57 25 -157 32 -209 15z"/>
<path d="M18160 6024 c0 -11 7 -53 16 -94 8 -41 51 -248 94 -460 43 -212 83
-405 89 -430 5 -24 9 -46 7 -47 -2 -2 -30 45 -64 104 -211 377 -510 663 -833
797 -218 90 -400 121 -659 113 -227 -7 -346 -35 -525 -124 -335 -167 -617
-502 -786 -937 -116 -298 -169 -612 -169 -1001 0 -378 49 -606 190 -890 217
-438 570 -722 990 -796 93 -17 347 -17 455 0 290 45 549 156 800 344 174 131
434 422 562 629 20 32 37 57 39 56 1 -2 -55 -235 -125 -518 -70 -283 -126
-517 -125 -521 2 -4 569 65 1493 183 21 2 -9 29 -171 153 l-196 150 -6 90 c-3
50 -26 673 -51 1385 -24 712 -46 1327 -49 1366 l-4 72 249 113 c136 62 247
115 245 116 -3 4 -294 36 -1011 113 -203 22 -389 43 -412 46 -37 5 -43 4 -43
-12z m-877 -900 c219 -111 481 -368 687 -674 67 -100 200 -324 200 -336 0 -13
-106 -79 -183 -114 -105 -47 -186 -63 -297 -57 -300 17 -537 212 -622 514 -28
100 -30 303 -4 403 28 110 125 290 156 290 6 0 34 -12 63 -26z"/>
<path d="M10705 5995 c-176 -7 -453 -18 -615 -24 -302 -12 -2433 -91 -2460
-91 -13 -1 -13 -2 0 -9 8 -5 218 -89 465 -186 248 -98 451 -178 452 -179 0 -1
-25 -320 -58 -711 -32 -390 -74 -910 -94 -1155 -21 -245 -49 -591 -63 -768
l-27 -324 -320 -130 c-176 -71 -347 -140 -380 -153 l-60 -24 80 0 c122 0 3465
106 3470 110 2 2 -157 54 -353 114 l-357 111 -217 1519 c-119 836 -216 1520
-215 1521 5 5 1058 374 1066 374 6 0 13 5 16 10 3 6 3 9 -2 9 -4 -1 -152 -7
-328 -14z"/>
<path d="M20438 4140 c-71 -12 -145 -38 -223 -79 -84 -43 -223 -177 -273 -263
-125 -213 -125 -503 0 -716 50 -86 189 -220 273 -264 142 -73 293 -101 435
-79 282 44 489 221 582 497 20 60 23 88 22 209 0 124 -3 148 -26 212 -55 154
-142 272 -265 360 -149 106 -348 153 -525 123z"/>
<path d="M24764 4140 c-143 -26 -265 -92 -380 -205 -136 -135 -203 -301 -204
-501 -1 -353 262 -648 620 -696 322 -42 635 150 751 462 28 73 33 102 37 207
5 133 -10 219 -54 320 -81 186 -270 346 -469 399 -74 19 -232 26 -301 14z"/>
<path d="M21250 1714 c-169 -28 -272 -77 -367 -172 -111 -111 -170 -233 -193
-404 -32 -227 50 -513 207 -723 78 -105 211 -228 312 -289 44 -27 127 -65 183
-85 101 -35 105 -36 258 -36 152 0 157 1 235 33 199 80 335 247 387 474 20 86
15 289 -10 385 -117 455 -491 793 -904 817 -46 2 -94 3 -108 0z"/>
<path d="M23690 1709 c-376 -57 -719 -388 -827 -796 -35 -136 -37 -321 -4
-438 69 -245 222 -400 453 -461 48 -12 93 -15 188 -12 111 4 136 8 228 40 134
46 244 114 353 216 218 205 336 447 355 731 16 227 -81 467 -238 592 -58 46
-168 100 -238 117 -69 17 -197 22 -270 11z"/>
</g>
</svg>
